<svg width="24" height="24" viewBox="0 0 24 24" fill="none" xmlns="http://www.w3.org/2000/svg">
<path d="M7.00001 17C7.00001 17.4583 7.375 17.8333 7.83334 17.8333H8.66667V20.75C8.66667 21.4417 9.225 22 9.91667 22C10.6083 22 11.1667 21.4417 11.1667 20.75V17.8333H12.8333V20.75C12.8333 21.4417 13.3917 22 14.0833 22C14.775 22 15.3333 21.4417 15.3333 20.75V17.8333H16.1667C16.625 17.8333 17 17.4583 17 17V8.66667H7.00001V17ZM4.91667 8.66667C4.22501 8.66667 3.66667 9.225 3.66667 9.91667V15.75C3.66667 16.4417 4.22501 17 4.91667 17C5.60834 17 6.16667 16.4417 6.16667 15.75V9.91667C6.16667 9.225 5.60834 8.66667 4.91667 8.66667ZM19.0833 8.66667C18.3917 8.66667 17.8333 9.225 17.8333 9.91667V15.75C17.8333 16.4417 18.3917 17 19.0833 17C19.775 17 20.3333 16.4417 20.3333 15.75V9.91667C20.3333 9.225 19.775 8.66667 19.0833 8.66667ZM14.9417 3.8L16.025 2.71667C16.1917 2.55 16.1917 2.29167 16.025 2.125C15.8583 1.95833 15.6 1.95833 15.4333 2.125L14.2 3.35833C13.5417 3.025 12.7917 2.83333 12 2.83333C11.2 2.83333 10.45 3.025 9.78334 3.35833L8.54167 2.125C8.375 1.95833 8.11667 1.95833 7.95 2.125C7.78334 2.29167 7.78334 2.55 7.95 2.71667L9.04167 3.80833C7.80834 4.71667 7.00001 6.175 7.00001 7.83333H17C17 6.175 16.1917 4.70833 14.9417 3.8V3.8ZM10.3333 6.16667H9.5V5.33333H10.3333V6.16667ZM14.5 6.16667H13.6667V5.33333H14.5V6.16667Z" fill="black"/>
</svg>
