<svg width="24" height="24" viewBox="0 0 24 24" fill="none" xmlns="http://www.w3.org/2000/svg">
<path d="M12 2.24226C10.6868 2.24226 9.38642 2.50091 8.17317 3.00346C6.95991 3.50601 5.85752 4.2426 4.92893 5.17119C3.05357 7.04655 2 9.59009 2 12.2423C2 16.6623 4.87 20.4123 8.84 21.7423C9.34 21.8223 9.5 21.5123 9.5 21.2423C9.5 21.0123 9.5 20.3823 9.5 19.5523C6.73 20.1523 6.14 18.2123 6.14 18.2123C5.68 17.0523 5.03 16.7423 5.03 16.7423C4.12 16.1223 5.1 16.1423 5.1 16.1423C6.1 16.2123 6.63 17.1723 6.63 17.1723C7.5 18.6923 8.97 18.2423 9.54 18.0023C9.63 17.3523 9.89 16.9123 10.17 16.6623C7.95 16.4123 5.62 15.5523 5.62 11.7423C5.62 10.6323 6 9.74226 6.65 9.03226C6.55 8.78226 6.2 7.74226 6.75 6.39226C6.75 6.39226 7.59 6.12226 9.5 7.41226C10.29 7.19226 11.15 7.08226 12 7.08226C12.85 7.08226 13.71 7.19226 14.5 7.41226C16.41 6.12226 17.25 6.39226 17.25 6.39226C17.8 7.74226 17.45 8.78226 17.35 9.03226C18 9.74226 18.38 10.6323 18.38 11.7423C18.38 15.5623 16.04 16.4023 13.81 16.6523C14.17 16.9623 14.5 17.5723 14.5 18.5023C14.5 19.8423 14.5 20.9223 14.5 21.2423C14.5 21.5123 14.66 21.8323 15.17 21.7423C19.14 20.4023 22 16.6623 22 12.2423C22 10.929 21.7413 9.62868 21.2388 8.41542C20.7362 7.20217 19.9997 6.09977 19.0711 5.17119C18.1425 4.2426 17.0401 3.50601 15.8268 3.00346C14.6136 2.50091 13.3132 2.24226 12 2.24226V2.24226Z" fill="black"/>
</svg>
