<svg width="24" height="24" viewBox="0 0 24 24" fill="none" xmlns="http://www.w3.org/2000/svg">
<path d="M19.6906 17.3235C19.4023 17.9894 19.0612 18.6023 18.6659 19.1659C18.127 19.9341 17.6859 20.4659 17.3459 20.7612C16.8188 21.2459 16.2541 21.4941 15.6494 21.5082C15.2153 21.5082 14.6918 21.3847 14.0823 21.1341C13.4709 20.8847 12.909 20.7612 12.3953 20.7612C11.8565 20.7612 11.2786 20.8847 10.6605 21.1341C10.0414 21.3847 9.5427 21.5153 9.1614 21.5282C8.58152 21.5529 8.00352 21.2976 7.42658 20.7612C7.05834 20.44 6.59775 19.8894 6.04599 19.1094C5.45399 18.2765 4.96728 17.3106 4.58599 16.2094C4.17764 15.02 3.97293 13.8682 3.97293 12.7532C3.97293 11.4759 4.24893 10.3742 4.80175 9.45106C5.23623 8.70953 5.81422 8.12459 6.53764 7.69517C7.26105 7.26576 8.0427 7.04694 8.88446 7.03294C9.34505 7.03294 9.94905 7.17541 10.6996 7.45541C11.4481 7.73635 11.9287 7.87882 12.1394 7.87882C12.2969 7.87882 12.8308 7.71223 13.7359 7.38012C14.5918 7.07212 15.3141 6.94459 15.9059 6.99482C17.5094 7.12423 18.7141 7.75635 19.5153 8.89517C18.0812 9.76411 17.3718 10.9812 17.3859 12.5425C17.3988 13.7586 17.84 14.7706 18.707 15.5741C19.1 15.9471 19.5388 16.2353 20.027 16.44C19.9212 16.7471 19.8094 17.0412 19.6906 17.3235V17.3235ZM16.0129 2.85176C16.0129 3.80495 15.6647 4.69494 14.9706 5.5187C14.1329 6.498 13.1198 7.06388 12.021 6.97459C12.007 6.86023 11.9989 6.73988 11.9989 6.61341C11.9989 5.69835 12.3973 4.71906 13.1047 3.91835C13.4579 3.51294 13.907 3.17585 14.4518 2.90694C14.9953 2.64205 15.5094 2.49555 15.9929 2.47047C16.007 2.59789 16.0129 2.72533 16.0129 2.85175V2.85176Z" fill="black"/>
</svg>
