<svg width="36" height="36" viewBox="0 0 24 24" fill="none" xmlns="http://www.w3.org/2000/svg">
<path d="M15.6 5.55774L10 9.05774L4.4 5.55774H15.6Z" transform="translate(2 2.24226)" fill="black"/>
<path d="M15.6 7.21675V13.9577H4.4V7.21675L10 10.7097L15.6 7.21675Z" transform="translate(2 2.24226)" fill="black"/>
<path fill-rule="evenodd" clip-rule="evenodd" d="M6.17316 0.761205C7.38642 0.258658 8.68678 0 10 0C11.3132 0 12.6136 0.258658 13.8268 0.761205C15.0401 1.26375 16.1425 2.00035 17.0711 2.92893C17.9997 3.85752 18.7362 4.95991 19.2388 6.17317C19.7413 7.38642 20 8.68678 20 10C20 11.3132 19.7413 12.6136 19.2388 13.8268C18.7363 15.0401 17.9997 16.1425 17.0711 17.0711C16.1425 17.9997 15.0401 18.7362 13.8268 19.2388C12.6136 19.7413 11.3132 20 10 20C8.68678 20 7.38642 19.7413 6.17316 19.2388C4.95991 18.7362 3.85752 17.9997 2.92893 17.0711C1.05357 15.1957 0 12.6522 0 10C0 7.34783 1.05357 4.8043 2.92893 2.92893C3.85752 2.00035 4.95991 1.26375 6.17316 0.761205ZM16.59 4.5678C16.3274 4.30524 15.9713 4.15775 15.6 4.15775H4.4C3.623 4.15775 3 4.78075 3 5.55774V13.9577C3 14.7277 3.623 15.3577 4.4 15.3577H15.6C15.9713 15.3577 16.3274 15.2102 16.59 14.9477C16.8525 14.6851 17 14.329 17 13.9577V5.55774C17 5.18644 16.8525 4.83035 16.59 4.5678Z" transform="translate(2 2.24226)" fill="black"/>
</svg>
