<svg width="36" height="36" viewBox="0 0 24 24" fill="none" xmlns="http://www.w3.org/2000/svg">
<path fill-rule="evenodd" clip-rule="evenodd" d="M6.17316 0.761205C7.38642 0.258658 8.68678 0 10 0C11.3132 0 12.6136 0.258658 13.8268 0.761205C15.0401 1.26375 16.1425 2.00035 17.0711 2.92893C17.9997 3.85752 18.7363 4.95991 19.2388 6.17317C19.7413 7.38642 20 8.68678 20 10C20 11.3132 19.7413 12.6136 19.2388 13.8268C18.7363 15.0401 17.9996 16.1425 17.0711 17.0711C16.1425 17.9997 15.0401 18.7362 13.8268 19.2388C12.6136 19.7413 11.3132 20 10 20C8.68678 20 7.38642 19.7413 6.17316 19.2388C4.95991 18.7362 3.85752 17.9997 2.92893 17.0711C1.05357 15.1957 0 12.6522 0 10C0 7.34783 1.05357 4.8043 2.92893 2.92893C3.85752 2.00035 4.95991 1.26375 6.17316 0.761205ZM16 9.75774H17.5V10.7577H16V12.2577H15V10.7577H13.5V9.75774H15V8.25774H16V9.75774ZM7.65 10.6577V9.11774H11.89C11.96 9.36774 11.96 9.56775 11.96 9.88774C11.96 12.4577 10.22 14.2577 7.65 14.2577C5.14 14.2577 3.15 12.2577 3.15 9.75774C3.15 7.25774 5.14 5.25774 7.65 5.25774C8.87 5.25774 9.9 5.70775 10.67 6.47775L9.45 7.63774C9.13 7.31775 8.55 6.92774 7.65 6.92774C6.11 6.92774 4.89 8.21774 4.89 9.75774C4.89 11.2977 6.11 12.5877 7.65 12.5877C9.45 12.5877 10.09 11.2977 10.22 10.6577H7.65Z" transform="translate(2 2.24226)" fill="black"/>
</svg>
